HIERARCHY
ROOT Hips
{
	OFFSET 0.0000 0.0000 0.0000
	CHANNELS 6 Xposition Yposition Zposition Zrotation Xrotation Yrotation
	JOINT Spine1
	{
		OFFSET -0.0137 5.0038 -0.0537
		CHANNELS 3 Zrotation Xrotation Yrotation
		JOINT Spine2
		{
			OFFSET -0.0000 7.1253 -0.0298
			CHANNELS 3 Zrotation Xrotation Yrotation
			JOINT Chest
			{
				OFFSET -0.0000 7.5501 -0.8160
				CHANNELS 3 Zrotation Xrotation Yrotation
				JOINT Neck1
				{
					OFFSET -0.1817 26.3113 -0.5533
					CHANNELS 3 Zrotation Xrotation Yrotation
					JOINT Neck2
					{
						OFFSET -0.0000 7.7094 2.3026
						CHANNELS 3 Zrotation Xrotation Yrotation
						JOINT Head
						{
							OFFSET -0.0000 6.1289 1.9537
							CHANNELS 3 Zrotation Xrotation Yrotation
							JOINT Jaw
							{
								OFFSET 0.0026 0.4756 3.0949
								CHANNELS 3 Zrotation Xrotation Yrotation
								End Site
								{
									OFFSET 0.0 1.0 0.0
								}
							}
							JOINT LeftEye
							{
								OFFSET 3.2064 5.3802 7.5869
								CHANNELS 3 Zrotation Xrotation Yrotation
								End Site
								{
									OFFSET 0.0 1.0 0.0
								}
							}
							JOINT RightEye
							{
								OFFSET -3.2224 5.3619 7.5582
								CHANNELS 3 Zrotation Xrotation Yrotation
								End Site
								{
									OFFSET 0.0 1.0 0.0
								}
							}
						}
					}
				}
				JOINT LeftShoulder
				{
					OFFSET 1.6217 23.2372 5.1134
					CHANNELS 3 Zrotation Xrotation Yrotation
					JOINT LeftArm
					{
						OFFSET 14.9198 0.0000 -5.5023
						CHANNELS 3 Zrotation Xrotation Yrotation
						JOINT LeftForeArm
						{
							OFFSET 28.7393 0.0000 -0.0026
							CHANNELS 3 Zrotation Xrotation Yrotation
							JOINT LeftHand
							{
								OFFSET 27.0940 -0.0000 0.0026
								CHANNELS 3 Zrotation Xrotation Yrotation
								JOINT LeftHandThumbEnd
								{
									OFFSET 12.2686 -3.2202 4.8331
									CHANNELS 3 Zrotation Xrotation Yrotation
									End Site
									{
										OFFSET 0.0 1.0 0.0
									}
								}
								JOINT LeftHandMiddleEnd
								{
									OFFSET 19.0120 -0.3129 -0.0340
									CHANNELS 3 Zrotation Xrotation Yrotation
									End Site
									{
										OFFSET 0.0 1.0 0.0
									}
								}
							}
						}
					}
				}
				JOINT RightShoulder
				{
					OFFSET -1.3801 23.1803 5.2142
					CHANNELS 3 Zrotation Xrotation Yrotation
					JOINT RightArm
					{
						OFFSET -15.0372 0.0000 -5.5456
						CHANNELS 3 Zrotation Xrotation Yrotation
						JOINT RightForeArm
						{
							OFFSET -28.7366 0.0000 -0.0026
							CHANNELS 3 Zrotation Xrotation Yrotation
							JOINT RightHand
							{
								OFFSET -27.1336 -0.0000 0.0026
								CHANNELS 3 Zrotation Xrotation Yrotation
								JOINT RightHandThumbEnd
								{
									OFFSET -12.2642 -3.2115 4.8040
									CHANNELS 3 Zrotation Xrotation Yrotation
									End Site
									{
										OFFSET 0.0 1.0 0.0
									}
								}
								JOINT RightHandMiddleEnd
								{
									OFFSET -19.0006 -0.3066 -0.0316
									CHANNELS 3 Zrotation Xrotation Yrotation
									End Site
									{
										OFFSET 0.0 1.0 0.0
									}
								}
							}
						}
					}
				}
			}
		}
	}
	JOINT LeftLeg
	{
		OFFSET 10.0432 -8.4345 2.5957
		CHANNELS 3 Zrotation Xrotation Yrotation
		JOINT LeftShin
		{
			OFFSET -0.0000 -43.2218 -0.8029
			CHANNELS 3 Zrotation Xrotation Yrotation
			JOINT LeftFoot
			{
				OFFSET 0.0000 -42.1551 -3.4815
				CHANNELS 3 Zrotation Xrotation Yrotation
				JOINT LeftToeBase
				{
					OFFSET 0.0000 -5.0595 13.2315
					CHANNELS 3 Zrotation Xrotation Yrotation
					End Site
					{
						OFFSET 0.0 1.0 0.0
					}
				}
			}
		}
	}
	JOINT RightLeg
	{
		OFFSET -10.0473 -8.2953 2.6203
		CHANNELS 3 Zrotation Xrotation Yrotation
		JOINT RightShin
		{
			OFFSET 0.0000 -43.3622 -0.8056
			CHANNELS 3 Zrotation Xrotation Yrotation
			JOINT RightFoot
			{
				OFFSET 0.0000 -42.1174 -3.4784
				CHANNELS 3 Zrotation Xrotation Yrotation
				JOINT RightToeBase
				{
					OFFSET -0.0000 -5.0796 13.2842
					CHANNELS 3 Zrotation Xrotation Yrotation
					End Site
					{
						OFFSET 0.0 1.0 0.0
					}
				}
			}
		}
	}
}
MOTION
Frames: 8
Frame Time: 0.033333
-0.6911 96.6929 -1.7643 0.1056 -1.0582 -0.1337 1.0698 6.6648 -0.1059 0.1014 -2.8221 -0.1537 1.4620 14.2285 -2.5324 -2.8056 6.8466 3.7654 -0.4158 -3.5794 1.2638 -1.2778 -17.3268 1.3510 0.0392 0.0759 0.0877 0.7723 -10.4349 -3.7782 -0.7004 -10.4358 3.9577 -0.6369 15.5897 -8.0430 -37.8506 -17.8794 -35.5508 -0.7469 1.3078 -130.9854 -25.8369 40.1785 6.3587 -15.2972 10.3119 14.8380 -59.0731 1.5664 2.1790 -2.6940 14.1218 18.1553 55.7613 -19.9248 -2.1671 -0.1875 0.1767 102.7578 40.0648 -58.1670 -25.6717 15.5072 6.9690 -14.7120 47.2505 -3.2996 -4.5371 8.0935 -16.8623 11.8373 -0.0747 27.5906 -0.1155 -8.0132 -10.1359 -5.9397 1.6797 -0.2265 -1.8126 -8.1670 -17.6963 -8.7378 0.1741 26.6514 0.2455 8.1232 -8.5911 2.2764 -1.4005 0.2031 1.1412
-0.5209 96.6713 -1.7460 0.0955 -1.1289 -0.0444 1.0861 6.6693 -0.1296 0.1314 -2.8274 -0.0970 1.4977 14.2792 -2.5035 -2.7716 6.6241 3.7728 -0.4620 -3.5900 1.2996 -1.3810 -16.9487 1.2161 0.0306 0.0609 0.1094 0.7683 -10.4442 -3.7576 -0.7136 -10.4415 3.9804 -0.5800 15.5444 -8.1178 -38.0112 -18.2512 -37.3399 -0.7830 1.2370 -130.9533 -26.2643 40.6738 6.6036 -15.1949 10.3101 14.8013 -59.0581 1.5348 2.1985 -2.6902 14.1989 18.6286 56.6100 -21.8771 -2.0443 -0.1786 0.2040 100.7944 41.3049 -59.8013 -27.1820 15.6014 7.0273 -14.9349 47.3804 -3.3347 -4.5915 8.0288 -16.9711 11.9296 -0.1034 27.9114 -0.1577 -7.9231 -10.3473 -6.2011 1.6839 -0.2302 -1.8488 -8.2966 -17.6345 -8.6662 0.1760 26.6833 0.2660 8.2688 -8.5731 2.1597 -1.4098 0.3463 1.1076
-0.3533 96.6088 -1.7691 0.1036 -1.2174 0.0929 1.0702 6.6617 -0.1023 0.1595 -2.8392 -0.1420 1.5811 14.3925 -2.4072 -2.7109 6.4393 3.8183 -0.4792 -3.6162 1.2404 -1.5840 -16.5426 1.1888 0.0282 0.0597 0.1064 0.7667 -10.4607 -3.7621 -0.7166 -10.4566 3.9789 -0.4073 15.5547 -8.2915 -38.1057 -18.6934 -39.3963 -0.6435 1.1489 -130.9707 -27.2901 41.5886 6.7071 -15.0913 10.2646 14.7159 -58.9892 1.5310 2.1201 -2.6299 14.2415 19.1634 57.6636 -23.8705 -1.6370 -0.1947 0.1302 98.7040 42.4563 -62.2408 -29.0671 15.8002 7.1347 -15.1886 47.6244 -3.3759 -4.6869 7.9183 -17.1226 12.0194 -0.1173 28.3720 -0.1722 -7.6901 -10.6159 -6.4190 1.6932 -0.1618 -1.8686 -8.4904 -17.6603 -8.6457 0.1760 26.8974 0.2570 8.4492 -8.6324 2.1374 -1.4148 0.5254 1.0936
-0.1574 96.5424 -1.8298 0.0894 -1.3194 0.1684 1.0435 6.6415 -0.0982 0.1708 -2.8371 -0.1399 1.7404 14.5308 -2.2842 -2.7023 6.3180 3.8633 -0.4670 -3.6324 1.1507 -1.7530 -16.2360 1.2257 0.0279 0.0676 0.1005 0.7653 -10.4752 -3.7714 -0.7157 -10.4670 3.9730 -0.1450 15.5824 -8.4825 -37.9900 -19.2248 -41.7210 -0.4311 1.0854 -130.8633 -28.5101 42.5062 6.7378 -14.9610 10.2402 14.6452 -58.9352 1.5210 2.0484 -2.4901 14.2573 19.6512 58.7686 -25.8043 -0.8558 -0.2432 0.0840 96.5988 43.0037 -65.0869 -30.6133 16.0070 7.2774 -15.4356 47.9269 -3.4184 -4.7717 7.8156 -17.2624 12.0853 -0.1104 28.8339 -0.1573 -7.4680 -10.8555 -6.5823 1.7006 -0.0839 -1.8688 -8.6694 -17.6942 -8.6127 0.1730 27.0930 0.2692 8.6342 -8.6773 2.0894 -1.4151 0.6320 1.0883
0.0928 96.4726 -1.9013 0.0674 -1.4062 0.2104 1.0003 6.6050 -0.0836 0.1702 -2.8433 -0.1383 1.9265 14.6634 -2.1610 -2.7003 6.1860 3.8844 -0.4488 -3.6214 1.0940 -1.8445 -15.9715 1.2919 0.0278 0.0757 0.1058 0.7615 -10.4686 -3.7646 -0.7121 -10.4612 3.9749 0.2336 15.5959 -8.6745 -37.6568 -19.8881 -44.2260 -0.1863 1.0982 -130.6400 -29.8167 43.3351 6.7266 -14.8456 10.2179 14.5795 -58.7910 1.5187 1.9817 -2.2873 14.2406 20.1303 59.9524 -27.5621 0.2302 -0.2821 0.0845 94.4768 42.7048 -68.1822 -31.4384 16.1265 7.4937 -15.6712 48.2699 -3.4324 -4.8348 7.7001 -17.3909 12.1446 -0.1029 29.2440 -0.1306 -7.2650 -11.0529 -6.6954 1.7044 -0.0158 -1.8758 -8.8475 -17.7320 -8.6068 0.1727 27.2190 0.2928 8.8312 -8.6454 2.0723 -1.4145 0.6918 1.0858
0.3383 96.4215 -1.9710 0.0512 -1.4494 0.1667 0.9365 6.5584 -0.0479 0.1604 -2.8573 -0.1340 2.1091 14.7608 -2.0764 -2.7057 6.0626 3.8823 -0.4432 -3.6023 1.1163 -1.8700 -15.6440 1.3831 0.0282 0.0790 0.1113 0.7611 -10.4630 -3.7581 -0.7107 -10.4584 3.9787 0.6817 15.5660 -8.8576 -37.2327 -20.7279 -46.6339 -0.0202 1.1365 -130.2893 -30.8921 43.8247 6.8862 -14.6949 10.2242 14.5463 -58.6698 1.5081 1.9312 -2.0470 14.2140 20.5886 61.1789 -28.9688 1.5244 -0.2634 0.0485 92.5071 41.0236 -71.1801 -30.8448 16.2127 7.7497 -15.8569 48.6845 -3.4085 -4.8537 7.5573 -17.5232 12.2627 -0.0984 29.5988 -0.1079 -7.0607 -11.2510 -6.7759 1.7070 0.0749 -1.8843 -9.0099 -17.8046 -8.5960 0.1831 27.2766 0.3317 9.0193 -8.5607 2.1218 -1.4139 0.7104 1.0850
0.5904 96.3949 -2.0649 0.0347 -1.4668 0.0452 0.8670 6.5095 -0.0358 0.1452 -2.8790 -0.1544 2.2509 14.8152 -1.9695 -2.7187 5.9688 3.9058 -0.4405 -3.5784 1.1560 -1.8834 -15.3134 1.5217 0.0278 0.0802 0.1147 0.7565 -10.4540 -3.7533 -0.7065 -10.4527 3.9818 1.1431 15.4864 -9.0340 -36.8118 -21.7443 -48.7865 0.0351 1.2109 -129.7107 -31.8108 44.1073 7.0442 -14.5805 10.2539 14.5483 -58.6169 1.5098 1.9067 -1.7929 14.2523 21.0177 62.4758 -30.0846 2.9520 -0.1339 0.0155 90.7111 38.2174 -74.1814 -28.9604 16.2743 8.0063 -15.9764 49.1149 -3.3672 -4.8547 7.4196 -17.6203 12.4128 -0.1018 29.8488 -0.0976 -6.9015 -11.3868 -6.8059 1.7093 0.1516 -1.8943 -9.1574 -17.8460 -8.5641 0.1802 27.1957 0.3510 9.1385 -8.4075 2.2368 -1.4129 0.6877 1.0806
0.8651 96.4045 -2.1090 0.0084 -1.4696 -0.0932 0.8054 6.4484 -0.0535 0.1291 -2.8971 -0.1481 2.3563 14.8356 -1.8976 -2.7364 5.9129 3.9412 -0.4441 -3.5594 1.1931 -1.9032 -14.9640 1.6948 0.0254 0.0788 0.1184 0.7500 -10.4567 -3.7504 -0.7047 -10.4584 3.9858 1.5955 15.3930 -9.1952 -36.3944 -22.9221 -50.7268 0.0401 1.2661 -128.9292 -32.5495 44.2856 7.2281 -14.5447 10.2854 14.5664 -58.6317 1.5127 1.9184 -1.6016 14.3953 21.3745 63.7460 -30.9081 4.5946 -0.0187 -0.0097 89.1611 35.6080 -77.2817 -27.0546 16.2941 8.2217 -16.0901 49.4907 -3.3282 -4.8474 7.2830 -17.6645 12.5779 -0.1123 29.9746 -0.0931 -6.7939 -11.4694 -6.8237 1.7097 0.2539 -1.8890 -9.2755 -17.8327 -8.5575 0.1880 26.9597 0.3882 9.2351 -8.1961 2.3921 -1.4099 0.6588 1.0698
